<svg width="28" height="28" viewBox="0 0 28 28" fill="none" xmlns="http://www.w3.org/2000/svg">
<path fill-rule="evenodd" clip-rule="evenodd" d="M0.548923 9.02873C0 10.0699 0 11.2543 0 13.6231V21.0213C0 24.3111 0 25.956 1.17157 26.978C2.34315 28 4.22876 28 8 28L8 19.2767C8 17.6369 9.47578 16.532 11 16.532H17C18.5242 16.532 20 17.6369 20 19.2767V28C23.7712 28 25.6569 28 26.8284 26.978C28 25.956 28 24.3111 28 21.0213V13.6231C28 11.2543 28 10.0699 27.4511 9.02873C26.9022 7.98761 25.8713 7.2168 23.8095 5.67517L21.8095 4.17972C18.0829 1.39324 16.2195 0 14 0C11.7805 0 9.91714 1.39324 6.1905 4.17972L4.1905 5.67517C2.12873 7.2168 1.09785 7.98761 0.548923 9.02873ZM18 28V19.2767C18 18.9893 17.6849 18.532 17 18.532H11C10.3151 18.532 10 18.9893 10 19.2767V28H18Z" fill="#9898A0"/>
</svg>
